{
	"asset":{
		"generator":"Khronos glTF Blender I/O v4.1.63",
		"version":"2.0"
	},
	"scene":0,
	"scenes":[
		{
			"name":"Scene",
			"nodes":[
				0,
				1,
				2
			]
		}
	],
	"nodes":[
		{
			"mesh":0,
			"name":"Cube.001",
			"translation":[
				0,
				0,
				-2.530621290206909
			]
		},
		{
			"mesh":1,
			"name":"Icosphere"
		},
		{
			"mesh":2,
			"name":"Suzanne",
			"rotation":[
				0,
				0.7071068286895752,
				0,
				0.7071067094802856
			],
			"translation":[
				0,
				0,
				2.677886724472046
			]
		}
	],
	"materials":[
		{
			"doubleSided":true,
			"name":"Material.001",
			"pbrMetallicRoughness":{
				"baseColorFactor":[
					0.800000011920929,
					0.800000011920929,
					0.800000011920929,
					1
				],
				"metallicFactor":0,
				"roughnessFactor":0.5
			}
		}
	],
	"meshes":[
		{
			"name":"Cube.001",
			"primitives":[
				{
					"attributes":{
						"POSITION":0,
						"NORMAL":1,
						"TEXCOORD_0":2
					},
					"indices":3,
					"material":0
				}
			]
		},
		{
			"name":"Icosphere.002",
			"primitives":[
				{
					"attributes":{
						"POSITION":4,
						"NORMAL":5,
						"TEXCOORD_0":6
					},
					"indices":7
				}
			]
		},
		{
			"name":"Suzanne",
			"primitives":[
				{
					"attributes":{
						"POSITION":8,
						"NORMAL":9,
						"TEXCOORD_0":10
					},
					"indices":11
				}
			]
		}
	],
	"accessors":[
		{
			"bufferView":0,
			"componentType":5126,
			"count":24,
			"max":[
				1,
				1,
				1
			],
			"min":[
				-1,
				-1,
				-1
			],
			"type":"VEC3"
		},
		{
			"bufferView":1,
			"componentType":5126,
			"count":24,
			"type":"VEC3"
		},
		{
			"bufferView":2,
			"componentType":5126,
			"count":24,
			"type":"VEC2"
		},
		{
			"bufferView":3,
			"componentType":5123,
			"count":36,
			"type":"SCALAR"
		},
		{
			"bufferView":4,
			"componentType":5126,
			"count":15360,
			"max":[
				1,
				1,
				0.9999999403953552
			],
			"min":[
				-0.9999999403953552,
				-1,
				-0.9999999403953552
			],
			"type":"VEC3"
		},
		{
			"bufferView":5,
			"componentType":5126,
			"count":15360,
			"type":"VEC3"
		},
		{
			"bufferView":6,
			"componentType":5126,
			"count":15360,
			"type":"VEC2"
		},
		{
			"bufferView":7,
			"componentType":5123,
			"count":15360,
			"type":"SCALAR"
		},
		{
			"bufferView":8,
			"componentType":5126,
			"count":125952,
			"max":[
				1.3287925720214844,
				0.9392362236976624,
				0.8226352334022522
			],
			"min":[
				-1.328792691230774,
				-0.971822202205658,
				-0.7782661318778992
			],
			"type":"VEC3"
		},
		{
			"bufferView":9,
			"componentType":5126,
			"count":125952,
			"type":"VEC3"
		},
		{
			"bufferView":10,
			"componentType":5126,
			"count":125952,
			"type":"VEC2"
		},
		{
			"bufferView":11,
			"componentType":5125,
			"count":188928,
			"type":"SCALAR"
		}
	],
	"bufferViews":[
		{
			"buffer":0,
			"byteLength":288,
			"byteOffset":0,
			"target":34962
		},
		{
			"buffer":0,
			"byteLength":288,
			"byteOffset":288,
			"target":34962
		},
		{
			"buffer":0,
			"byteLength":192,
			"byteOffset":576,
			"target":34962
		},
		{
			"buffer":0,
			"byteLength":72,
			"byteOffset":768,
			"target":34963
		},
		{
			"buffer":0,
			"byteLength":184320,
			"byteOffset":840,
			"target":34962
		},
		{
			"buffer":0,
			"byteLength":184320,
			"byteOffset":185160,
			"target":34962
		},
		{
			"buffer":0,
			"byteLength":122880,
			"byteOffset":369480,
			"target":34962
		},
		{
			"buffer":0,
			"byteLength":30720,
			"byteOffset":492360,
			"target":34963
		},
		{
			"buffer":0,
			"byteLength":1511424,
			"byteOffset":523080,
			"target":34962
		},
		{
			"buffer":0,
			"byteLength":1511424,
			"byteOffset":2034504,
			"target":34962
		},
		{
			"buffer":0,
			"byteLength":1007616,
			"byteOffset":3545928,
			"target":34962
		},
		{
			"buffer":0,
			"byteLength":755712,
			"byteOffset":4553544,
			"target":34963
		}
	],
	"buffers":[
		{
			"byteLength":5309256,
			"uri":"pbr_scene.bin"
		}
	]
}
